<svg width="124" height="166" viewBox="0 0 124 166" fill="none" xmlns="http://www.w3.org/2000/svg">
<path d="M39.9963 156.636C40.3803 157.26 40.5243 157.824 40.4283 158.328C40.3323 158.856 40.0923 159.288 39.7083 159.624C39.3243 159.984 38.8563 160.212 38.3043 160.308C37.7763 160.404 37.2363 160.344 36.6843 160.128C36.1563 159.936 35.7003 159.552 35.3163 158.976L32.7603 154.8C32.4483 154.32 32.0403 153.96 31.5363 153.72C31.0563 153.504 30.4323 153.396 29.6643 153.396L33.9123 151.776C35.0163 151.776 35.9163 151.968 36.6123 152.352C37.3323 152.736 37.9803 153.396 38.5563 154.332L39.9963 156.636ZM29.7003 153.396C27.2043 153.396 25.0083 152.856 23.1123 151.776C21.2403 150.672 19.7763 149.136 18.7203 147.168C17.6883 145.2 17.1723 142.908 17.1723 140.292C17.1723 138.3 17.4603 136.512 18.0363 134.928C18.6363 133.32 19.4883 131.952 20.5923 130.824C21.6963 129.672 23.0163 128.784 24.5523 128.16C26.1123 127.536 27.8283 127.224 29.7003 127.224C32.2443 127.224 34.4523 127.764 36.3243 128.844C38.1963 129.924 39.6483 131.448 40.6803 133.416C41.7363 135.36 42.2643 137.64 42.2643 140.256C42.2643 142.248 41.9643 144.048 41.3643 145.656C40.7643 147.264 39.9123 148.644 38.8083 149.796C37.7043 150.948 36.3843 151.836 34.8483 152.46C33.3123 153.084 31.5963 153.396 29.7003 153.396ZM29.7003 148.644C31.1163 148.644 32.3163 148.32 33.3003 147.672C34.3083 147 35.0763 146.04 35.6043 144.792C36.1563 143.52 36.4323 142.02 36.4323 140.292C36.4323 137.652 35.8443 135.612 34.6683 134.172C33.4923 132.708 31.8363 131.976 29.7003 131.976C28.3083 131.976 27.1083 132.3 26.1003 132.948C25.0923 133.596 24.3243 134.544 23.7963 135.792C23.2683 137.04 23.0043 138.54 23.0043 140.292C23.0043 142.908 23.5923 144.96 24.7683 146.448C25.9443 147.912 27.5883 148.644 29.7003 148.644ZM52.2687 153.396C50.7807 153.396 49.5447 153.12 48.5607 152.568C47.5767 152.016 46.8447 151.188 46.3647 150.084C45.9087 148.956 45.6807 147.564 45.6807 145.908V137.772C45.6807 136.86 45.9087 136.176 46.3647 135.72C46.8447 135.264 47.5167 135.036 48.3807 135.036C49.2447 135.036 49.9167 135.264 50.3967 135.72C50.8767 136.176 51.1167 136.86 51.1167 137.772V146.052C51.1167 147.108 51.3327 147.9 51.7647 148.428C52.1967 148.932 52.8807 149.184 53.8167 149.184C54.8487 149.184 55.6887 148.824 56.3367 148.104C57.0087 147.36 57.3447 146.388 57.3447 145.188V137.772C57.3447 136.86 57.5727 136.176 58.0287 135.72C58.5087 135.264 59.1807 135.036 60.0447 135.036C60.9327 135.036 61.6047 135.264 62.0607 135.72C62.5407 136.176 62.7807 136.86 62.7807 137.772V150.552C62.7807 152.4 61.9047 153.324 60.1527 153.324C59.2887 153.324 58.6287 153.084 58.1727 152.604C57.7167 152.124 57.4887 151.44 57.4887 150.552V148.14L58.0287 149.544C57.5007 150.768 56.7447 151.716 55.7607 152.388C54.7767 153.06 53.6127 153.396 52.2687 153.396ZM69.3631 153.288C68.4751 153.288 67.7911 153.036 67.3111 152.532C66.8551 152.004 66.6271 151.272 66.6271 150.336V138.024C66.6271 137.064 66.8551 136.332 67.3111 135.828C67.7911 135.3 68.4751 135.036 69.3631 135.036C70.2271 135.036 70.8871 135.3 71.3431 135.828C71.8231 136.332 72.0631 137.064 72.0631 138.024V150.336C72.0631 151.272 71.8351 152.004 71.3791 152.532C70.9231 153.036 70.2511 153.288 69.3631 153.288ZM69.3631 132.084C68.3551 132.084 67.5751 131.856 67.0231 131.4C66.4951 130.92 66.2311 130.248 66.2311 129.384C66.2311 128.496 66.4951 127.824 67.0231 127.368C67.5751 126.888 68.3551 126.648 69.3631 126.648C70.3711 126.648 71.1391 126.888 71.6671 127.368C72.1951 127.824 72.4591 128.496 72.4591 129.384C72.4591 130.248 72.1951 130.92 71.6671 131.4C71.1391 131.856 70.3711 132.084 69.3631 132.084ZM77.4119 153C76.8839 153 76.4399 152.868 76.0799 152.604C75.7199 152.316 75.4799 151.956 75.3599 151.524C75.2399 151.092 75.2399 150.624 75.3599 150.12C75.5039 149.616 75.7799 149.148 76.1879 148.716L85.0079 138.132V139.392H77.1959C76.5479 139.392 76.0439 139.212 75.6839 138.852C75.3239 138.492 75.1439 138 75.1439 137.376C75.1439 136.704 75.3239 136.2 75.6839 135.864C76.0439 135.504 76.5479 135.324 77.1959 135.324H87.5999C88.2479 135.324 88.7639 135.468 89.1479 135.756C89.5319 136.044 89.7839 136.404 89.9039 136.836C90.0479 137.244 90.0599 137.7 89.9399 138.204C89.8439 138.684 89.5919 139.14 89.1839 139.572L80.1479 150.372V148.968H88.4999C89.8679 148.968 90.5519 149.64 90.5519 150.984C90.5519 151.632 90.3719 152.136 90.0119 152.496C89.6519 152.832 89.1479 153 88.4999 153H77.4119ZM97.3443 159.804C96.7203 159.804 96.2043 159.636 95.7963 159.3C95.3883 158.964 95.1483 158.52 95.0763 157.968C95.0043 157.44 95.1003 156.876 95.3643 156.276L97.7763 150.948V153.18L91.4043 138.564C91.1643 137.94 91.0803 137.364 91.1523 136.836C91.2483 136.284 91.5123 135.852 91.9443 135.54C92.4003 135.204 93.0243 135.036 93.8163 135.036C94.4643 135.036 94.9803 135.192 95.3643 135.504C95.7723 135.792 96.1443 136.356 96.4803 137.196L100.728 147.996H99.5763L103.968 137.16C104.304 136.344 104.676 135.792 105.084 135.504C105.516 135.192 106.092 135.036 106.812 135.036C107.436 135.036 107.928 135.204 108.288 135.54C108.672 135.852 108.9 136.272 108.972 136.8C109.068 137.328 108.972 137.904 108.684 138.528L100.224 157.716C99.8643 158.532 99.4563 159.084 99.0003 159.372C98.5683 159.66 98.0163 159.804 97.3443 159.804Z" fill="white"/>
<mask id="mask0_210_12" style="mask-type:alpha" maskUnits="userSpaceOnUse" x="12" y="0" width="100" height="100">
<rect x="12" width="100" height="100" rx="24" fill="#6A5AE0"/>
</mask>
<g mask="url(#mask0_210_12)">
<path d="M115.216 72.2475C115.216 86.2713 109.6 99.7207 99.6046 109.637C89.609 119.554 76.0522 125.125 61.9162 125.125C61.1871 125.125 60.4719 125.111 59.7429 125.084C55.8493 124.926 51.9846 124.35 48.2163 123.365C48.9453 122.996 49.6606 122.628 50.3758 122.232C50.3896 122.232 50.4033 122.218 50.4308 122.205L50.4446 122.191C51.2011 121.782 51.9439 121.372 52.6729 120.949C52.8517 120.84 53.0305 120.745 53.2093 120.649C53.8971 120.24 54.5848 119.83 55.2588 119.394C55.4581 119.287 55.651 119.168 55.8365 119.039C56.3592 118.725 56.8819 118.384 57.3908 118.043C57.7484 117.811 58.1198 117.565 58.4637 117.333C58.9864 116.978 59.4953 116.624 60.0042 116.255C60.3481 116.023 60.6645 115.791 60.9946 115.532C61.4347 115.232 61.8611 114.904 62.2875 114.577C62.6727 114.304 63.044 114.017 63.4154 113.717C63.9381 113.321 64.447 112.912 64.956 112.475C65.1761 112.312 65.3961 112.134 65.6162 111.943C66.1664 111.493 66.7028 111.029 67.2393 110.551C67.5281 110.306 67.817 110.06 68.1058 109.787C68.4222 109.514 68.7248 109.241 69.0274 108.955C69.6051 108.436 70.1691 107.89 70.733 107.345C70.8085 107.283 70.8777 107.215 70.9393 107.14C71.4895 106.621 72.026 106.075 72.5487 105.53C72.92 105.175 73.2639 104.806 73.594 104.438C73.9929 104.042 74.3643 103.633 74.7357 103.223C74.9558 102.992 75.1621 102.76 75.3546 102.528C75.8498 101.982 76.3312 101.422 76.8127 100.863C77.0603 100.576 77.3078 100.276 77.5417 99.9758C77.8993 99.5664 78.2432 99.157 78.5595 98.734C78.8896 98.3383 79.206 97.9289 79.5086 97.5195C79.7975 97.1647 80.0726 96.7963 80.3339 96.4415C80.6915 95.9776 81.0354 95.5136 81.3655 95.036C81.6956 94.5584 82.0533 94.0808 82.3834 93.5895C82.5472 93.3753 82.6988 93.1521 82.8373 92.9209C83.305 92.2386 83.7589 91.5427 84.199 90.8467C84.763 89.9871 85.2994 89.1137 85.8083 88.2267C86.0422 87.8447 86.2623 87.4626 86.4823 87.0805C88.2661 83.9596 89.8556 80.733 91.2415 77.4193C91.4478 76.9553 91.6404 76.4914 91.8192 76.0138C92.0393 75.5089 92.2319 74.9903 92.4244 74.4718C92.5895 74.0488 92.7545 73.6121 92.9059 73.1754C93.0847 72.6978 93.2497 72.2066 93.4148 71.729C94.02 69.9823 94.5702 68.222 95.0516 66.4344C95.1754 65.9841 95.2992 65.5474 95.4092 65.0971C95.4918 64.8106 95.5605 64.5376 95.6293 64.2511L95.9594 62.8592C96.3996 60.9624 96.771 59.052 97.0873 57.1143L97.2937 55.8043C97.3212 55.5996 97.3487 55.4086 97.3762 55.2039C97.4587 54.6854 97.5275 54.1668 97.5825 53.6483C97.6788 52.8705 97.7751 52.0927 97.8438 51.3149C97.8714 51.1102 97.8851 50.9055 97.8989 50.7008C97.9539 50.1686 97.9952 49.6228 98.0364 49.0906C98.0777 48.5584 98.1052 47.9989 98.1327 47.4531C98.1602 47.071 98.174 46.6889 98.1877 46.2932C98.2427 45.0378 98.2702 43.7824 98.2702 42.527C98.2702 41.8856 98.2703 41.2579 98.2427 40.6302C98.2427 40.3027 98.2427 39.9888 98.229 39.6613C98.1877 38.5287 98.1327 37.4098 98.0502 36.2908L98.0502 36.2499C98.0364 35.977 98.0227 35.7041 97.9952 35.4311C97.9401 34.6806 97.8714 33.9437 97.8026 33.1932C97.803 33.1698 97.7983 33.1464 97.7888 33.125C99.642 34.7995 101.375 36.6006 102.974 38.5151L103.016 38.556C103.023 38.5634 103.028 38.5729 103.029 38.5833C110.926 48.0509 115.237 59.9593 115.216 72.2475Z" fill="#FF8FA2"/>
<path d="M98.2163 42.2831C98.2237 58.6065 93.7874 74.6283 85.3768 88.6527C76.9663 102.677 64.8943 114.183 50.4387 121.951C50.4209 121.972 50.3967 121.987 50.3699 121.992L50.3563 122.006C49.6417 122.388 48.9272 122.757 48.2127 123.125C43.7283 121.951 39.4214 120.189 35.406 117.885C32.5011 116.223 29.7592 114.295 27.2163 112.126C27.6972 111.621 28.1644 111.116 28.6316 110.598L28.6452 110.584C28.6452 110.57 28.6591 110.557 28.6729 110.543L28.6865 110.543C43.7229 93.9463 52.0266 72.4011 51.9915 50.0753C51.9937 40.458 50.4632 30.9009 47.4568 21.7588L47.4432 21.7588C47.4432 21.7315 47.4294 21.7042 47.4294 21.6769L47.4155 21.6769C47.4077 21.655 47.403 21.632 47.4019 21.6087C47.1271 20.7762 46.8386 19.9438 46.5363 19.1251L61.8988 19.125C75.1545 19.1068 87.9377 24.0135 97.7354 32.8807C97.8453 33.9178 97.9277 34.9549 97.9964 36.0057C98.1476 38.08 98.2163 40.1679 98.2163 42.2831Z" fill="#9087E5"/>
<path d="M52 49.95C52 50.8643 51.9864 51.7786 51.9591 52.6792C51.9455 53.266 51.9182 53.8392 51.8909 54.426C51.7819 56.7731 51.5774 59.1067 51.2774 61.4266C51.2093 62.027 51.1275 62.6138 51.032 63.2006C50.9366 63.9238 50.8139 64.6335 50.6912 65.3567C50.5821 66.039 50.4594 66.7077 50.3231 67.39C50.2958 67.5538 50.2549 67.7175 50.2276 67.8813C50.1186 68.4408 49.9959 69.0139 49.8732 69.5734C49.2328 72.4818 48.4456 75.3557 47.5146 78.1843C47.3374 78.7438 47.1465 79.2897 46.9556 79.8219C46.939 79.8875 46.9162 79.9515 46.8874 80.0129C46.6966 80.5724 46.5057 81.1046 46.3012 81.6505C46.2467 81.8142 46.1785 81.9916 46.1103 82.169C45.8922 82.7558 45.6604 83.329 45.4287 83.9021C45.1696 84.5572 44.897 85.2122 44.6107 85.8536C44.3244 86.5222 44.0244 87.1909 43.7245 87.8596C43.4382 88.4737 43.1382 89.0877 42.8519 89.6882C42.5384 90.3296 42.2248 90.9573 41.8976 91.5714C41.5704 92.1855 41.2432 92.8132 40.9023 93.4273C40.5615 94.0414 40.2207 94.6555 39.8798 95.2559C39.539 95.8563 39.1709 96.4704 38.8028 97.0709C38.4347 97.6713 38.0666 98.2581 37.6848 98.8449C36.935 100.018 36.1579 101.178 35.3535 102.311C34.5491 103.444 33.7039 104.563 32.8586 105.668C31.577 107.292 30.2501 108.875 28.8776 110.417L28.864 110.417C28.8503 110.431 28.8504 110.431 28.8504 110.444C28.8504 110.448 28.849 110.451 28.8464 110.454C28.8438 110.456 28.8404 110.458 28.8367 110.458C28.3732 110.977 27.896 111.495 27.4188 112C25.2707 110.152 23.2738 108.135 21.4474 105.968C21.4336 105.942 21.4151 105.919 21.3929 105.9C13.3752 96.3821 8.98462 84.3294 9.00004 71.8797L9.00004 19L46.5875 19C46.8874 19.8188 47.1737 20.6376 47.4328 21.47L47.4464 21.4836C47.4476 21.5069 47.4523 21.5299 47.46 21.5519L47.4737 21.5519L47.4737 21.5928C47.4729 21.6002 47.4735 21.6077 47.4759 21.6148C47.4783 21.6219 47.4823 21.6283 47.4873 21.6337L47.5009 21.6337C47.5131 21.6858 47.5314 21.7362 47.5555 21.7838L47.7191 22.3161C48.1826 23.7626 48.6053 25.2227 48.987 26.7102C49.2597 27.7064 49.5051 28.7298 49.7368 29.7533C50.1595 31.6092 50.5276 33.5061 50.8412 35.4302C50.9093 35.8942 50.9911 36.3445 51.0457 36.8085C51.2093 37.9412 51.3592 39.0738 51.4819 40.2201C51.5365 40.6431 51.5774 41.0798 51.6046 41.5029C51.6864 42.2943 51.741 43.0995 51.7955 43.891C51.9318 45.897 52 47.9167 52 49.95Z" fill="#C4D0FB"/>
</g>
<rect x="12" width="100" height="90" rx="24" fill="white"/>
<mask id="mask1_210_12" style="mask-type:alpha" maskUnits="userSpaceOnUse" x="35" y="14" width="54" height="62">
<path fill-rule="evenodd" clip-rule="evenodd" d="M60.3881 61.5758C62.2584 61.4893 64.0977 61.1912 65.8726 60.6961L68.3771 63.1771C70.7337 65.5115 74.563 65.5202 76.9302 63.1965C79.2973 60.8727 79.3059 57.0965 76.9493 54.7621L74.1056 51.9452C73.5754 51.42 72.9707 51.0125 72.3248 50.7228C70.4574 49.3959 67.821 49.5701 65.6936 50.6026C63.9109 51.4678 61.9513 51.9725 59.9312 52.066C56.314 52.2334 52.7632 51.0705 49.973 48.8046C47.1828 46.5387 45.3538 43.3327 44.8435 39.8133C44.3333 36.294 45.1785 32.7143 47.214 29.7742C49.2494 26.8341 52.3287 24.7449 55.8499 23.9151C59.3711 23.0852 63.081 23.5744 66.2543 25.2869C69.4276 26.9995 71.8362 29.8122 73.0091 33.1754C73.6378 34.9778 73.8873 36.8689 73.7621 38.7381C73.582 41.4278 74.6263 44.3347 77.1074 45.3887C79.5416 46.4228 82.4108 45.3097 82.9675 42.7243C83.8666 38.5496 83.6118 34.1835 82.1846 30.0916C80.2296 24.4863 76.2153 19.7983 70.9265 16.9441C65.6376 14.0898 59.4545 13.2746 53.5859 14.6577C47.7172 16.0408 42.585 19.5228 39.1927 24.4229C35.8003 29.3231 34.3916 35.2892 35.242 41.1548C36.0923 47.0203 39.1407 52.3637 43.791 56.1402C48.4414 59.9168 54.3594 61.8549 60.3881 61.5758ZM78.6856 65.8097C76.3187 68.1333 76.3098 71.9095 78.6662 74.2437C81.0226 76.578 84.852 76.5863 87.2189 74.2628C89.5859 71.9392 89.5948 68.163 87.2384 65.8288C84.882 63.4945 81.0526 63.4862 78.6856 65.8097Z" fill="#6A5AE0"/>
</mask>
<g mask="url(#mask1_210_12)">
<path fill-rule="evenodd" clip-rule="evenodd" d="M67.8164 95.3204L116.83 46.9278L106.232 36.8093L50.1538 92.6808L67.8164 95.3204Z" fill="#6A5AE0"/>
<path fill-rule="evenodd" clip-rule="evenodd" d="M58.1889 82.4283L105.717 36.4963L95.4408 26.8923L41.0615 79.9229L58.1889 82.4283Z" fill="#6A5AE0"/>
<path fill-rule="evenodd" clip-rule="evenodd" d="M43.8934 80.472L99.7437 25.2471L89.9545 14.9235L34.1042 70.1485L43.8934 80.472Z" fill="#6A5AE0"/>
<path fill-rule="evenodd" clip-rule="evenodd" d="M33.8085 71.5194L89.5531 16.1382L75.0683 10.0332L25.9077 58.8733L33.8085 71.5194Z" fill="#6A5AE0"/>
<path fill-rule="evenodd" clip-rule="evenodd" d="M25.9077 59.6188L76.4199 10.0332L49.3598 12.6896L25.9077 37.9251V59.6188Z" fill="#6A5AE0"/>
</g>
</svg>
