<svg width="75" height="96" viewBox="0 0 75 96" fill="none" xmlns="http://www.w3.org/2000/svg">
<path d="M23.8014 93.486C24.0067 93.8087 24.0874 94.102 24.0434 94.366C23.9994 94.63 23.8821 94.85 23.6914 95.026C23.5007 95.2167 23.2661 95.334 22.9874 95.378C22.7087 95.4367 22.4301 95.4073 22.1514 95.29C21.8727 95.1873 21.6381 94.982 21.4474 94.674L19.9294 92.232C19.7241 91.8947 19.4454 91.638 19.0934 91.462C18.7561 91.3007 18.3381 91.22 17.8394 91.22L20.0174 90.362C20.7067 90.362 21.2567 90.4867 21.6674 90.736C22.0781 90.9707 22.4741 91.3887 22.8554 91.99L23.8014 93.486ZM17.8614 91.22C16.3654 91.22 15.0527 90.89 13.9234 90.23C12.8087 89.57 11.9434 88.646 11.3274 87.458C10.7114 86.2553 10.4034 84.8473 10.4034 83.234C10.4034 82.0167 10.5794 80.924 10.9314 79.956C11.2834 78.9733 11.7821 78.1373 12.4274 77.448C13.0874 76.744 13.8721 76.2087 14.7814 75.842C15.7054 75.4607 16.7321 75.27 17.8614 75.27C19.3721 75.27 20.6847 75.6 21.7994 76.26C22.9141 76.9053 23.7794 77.822 24.3954 79.01C25.0114 80.198 25.3194 81.5987 25.3194 83.212C25.3194 84.4293 25.1434 85.5293 24.7914 86.512C24.4394 87.4947 23.9334 88.338 23.2734 89.042C22.6281 89.746 21.8434 90.2887 20.9194 90.67C20.0101 91.0367 18.9907 91.22 17.8614 91.22ZM17.8614 88.8C18.8147 88.8 19.6214 88.58 20.2814 88.14C20.9561 87.7 21.4694 87.062 21.8214 86.226C22.1881 85.39 22.3714 84.3927 22.3714 83.234C22.3714 81.474 21.9754 80.11 21.1834 79.142C20.4061 78.174 19.2987 77.69 17.8614 77.69C16.9227 77.69 16.1161 77.91 15.4414 78.35C14.7667 78.7753 14.2461 79.406 13.8794 80.242C13.5274 81.0633 13.3514 82.0607 13.3514 83.234C13.3514 84.9793 13.7474 86.3433 14.5394 87.326C15.3314 88.3087 16.4387 88.8 17.8614 88.8ZM31.5928 91.22C30.6982 91.22 29.9575 91.0587 29.3708 90.736C28.7842 90.3987 28.3442 89.9 28.0508 89.24C27.7722 88.58 27.6328 87.7587 27.6328 86.776V81.452C27.6328 80.9827 27.7502 80.638 27.9848 80.418C28.2195 80.1833 28.5568 80.066 28.9968 80.066C29.4368 80.066 29.7742 80.1833 30.0088 80.418C30.2582 80.638 30.3828 80.9827 30.3828 81.452V86.82C30.3828 87.5827 30.5368 88.1473 30.8448 88.514C31.1528 88.8807 31.6442 89.064 32.3188 89.064C33.0522 89.064 33.6535 88.8147 34.1228 88.316C34.5922 87.8027 34.8268 87.128 34.8268 86.292V81.452C34.8268 80.9827 34.9442 80.638 35.1788 80.418C35.4135 80.1833 35.7508 80.066 36.1908 80.066C36.6308 80.066 36.9682 80.1833 37.2028 80.418C37.4522 80.638 37.5768 80.9827 37.5768 81.452V89.768C37.5768 90.7067 37.1295 91.176 36.2348 91.176C35.8095 91.176 35.4795 91.0587 35.2448 90.824C35.0102 90.5747 34.8928 90.2227 34.8928 89.768V88.096L35.2008 88.756C34.8928 89.548 34.4235 90.1567 33.7928 90.582C33.1768 91.0073 32.4435 91.22 31.5928 91.22ZM41.5831 91.154C41.1431 91.154 40.8057 91.022 40.5711 90.758C40.3364 90.494 40.2191 90.1273 40.2191 89.658V81.584C40.2191 81.1 40.3364 80.7333 40.5711 80.484C40.8057 80.22 41.1431 80.088 41.5831 80.088C42.0231 80.088 42.3604 80.22 42.5951 80.484C42.8444 80.7333 42.9691 81.1 42.9691 81.584V89.658C42.9691 90.1273 42.8517 90.494 42.6171 90.758C42.3824 91.022 42.0377 91.154 41.5831 91.154ZM41.5831 78.042C41.0697 78.042 40.6664 77.9173 40.3731 77.668C40.0944 77.404 39.9551 77.0447 39.9551 76.59C39.9551 76.1207 40.0944 75.7613 40.3731 75.512C40.6664 75.2627 41.0697 75.138 41.5831 75.138C42.1111 75.138 42.5144 75.2627 42.7931 75.512C43.0717 75.7613 43.2111 76.1207 43.2111 76.59C43.2111 77.0447 43.0717 77.404 42.7931 77.668C42.5144 77.9173 42.1111 78.042 41.5831 78.042ZM46.2665 91C45.9878 91 45.7531 90.934 45.5625 90.802C45.3865 90.6553 45.2691 90.472 45.2105 90.252C45.1518 90.032 45.1518 89.7973 45.2105 89.548C45.2838 89.284 45.4231 89.0347 45.6285 88.8L51.3265 81.65V82.31H46.1345C45.7971 82.31 45.5331 82.222 45.3425 82.046C45.1665 81.8553 45.0785 81.5987 45.0785 81.276C45.0785 80.9387 45.1665 80.682 45.3425 80.506C45.5331 80.33 45.7971 80.242 46.1345 80.242H52.6465C52.9692 80.242 53.2332 80.3153 53.4385 80.462C53.6438 80.594 53.7758 80.77 53.8345 80.99C53.9078 81.21 53.9152 81.4447 53.8565 81.694C53.7978 81.9433 53.6658 82.178 53.4605 82.398L47.6525 89.658V88.932H53.1525C53.8565 88.932 54.2085 89.2767 54.2085 89.966C54.2085 90.2887 54.1132 90.5453 53.9225 90.736C53.7465 90.912 53.4898 91 53.1525 91H46.2665ZM58.3625 95.136C58.0399 95.136 57.7759 95.048 57.5705 94.872C57.3652 94.7107 57.2405 94.4907 57.1965 94.212C57.1672 93.9333 57.2185 93.64 57.3505 93.332L58.8465 90.01V91.154L54.8425 81.892C54.7105 81.5693 54.6665 81.2687 54.7105 80.99C54.7545 80.7113 54.8865 80.4913 55.1065 80.33C55.3412 80.154 55.6565 80.066 56.0525 80.066C56.3899 80.066 56.6612 80.1467 56.8665 80.308C57.0719 80.4547 57.2552 80.7407 57.4165 81.166L60.3865 88.58H59.7265L62.7625 81.144C62.9239 80.7333 63.1145 80.4547 63.3345 80.308C63.5545 80.1467 63.8479 80.066 64.2145 80.066C64.5372 80.066 64.7939 80.154 64.9845 80.33C65.1752 80.4913 65.2925 80.7113 65.3365 80.99C65.3805 81.254 65.3292 81.5473 65.1825 81.87L59.8365 94.08C59.6459 94.4907 59.4405 94.7693 59.2205 94.916C59.0005 95.0627 58.7145 95.136 58.3625 95.136Z" fill="white"/>
<mask id="mask0_210_226" style="mask-type:alpha" maskUnits="userSpaceOnUse" x="9" y="0" width="56" height="56">
<rect x="9" width="56" height="56" rx="14" fill="#6A5AE0"/>
</mask>
<g mask="url(#mask0_210_226)">
<path d="M66.679 42.1833C66.6273 50.0365 63.4331 57.5473 57.7992 63.0637C52.1653 68.58 44.5532 71.6498 36.6372 71.5981C36.2289 71.5954 35.8284 71.5851 35.4203 71.5672C33.2405 71.4645 31.0785 71.1274 28.9719 70.5619C29.3815 70.3583 29.7834 70.1546 30.1854 69.9356C30.1931 69.9357 30.2008 69.9281 30.2163 69.9206L30.224 69.913C30.6492 69.6865 31.0666 69.46 31.4764 69.2258C31.5769 69.1653 31.6774 69.1125 31.7779 69.0597C32.1645 68.8329 32.5512 68.6062 32.9302 68.3642C33.0422 68.3049 33.1506 68.2393 33.255 68.1676C33.5489 67.9938 33.8428 67.8047 34.1291 67.6155C34.3302 67.4869 34.5391 67.3507 34.7325 67.2221C35.0265 67.0253 35.3128 66.8285 35.5991 66.6241C35.7925 66.4954 35.9705 66.3667 36.1564 66.2227C36.4039 66.0562 36.6439 65.8744 36.8839 65.6926C37.1006 65.5412 37.3096 65.3821 37.5187 65.2153C37.8128 64.9956 38.0993 64.7683 38.3859 64.5256C38.5098 64.4347 38.6337 64.3362 38.7576 64.23C39.0674 63.9799 39.3695 63.722 39.6716 63.4565C39.8343 63.3201 39.997 63.1836 40.1597 63.0318C40.3379 62.8801 40.5083 62.7284 40.6788 62.5691C41.0043 62.2808 41.3221 61.9772 41.6399 61.6736C41.6824 61.6396 41.7214 61.6015 41.7562 61.5598C42.0662 61.2714 42.3686 60.9677 42.6633 60.664C42.8726 60.4667 43.0665 60.2616 43.2527 60.0565C43.4775 59.8364 43.687 59.6085 43.8965 59.3806C44.0206 59.2515 44.137 59.1224 44.2456 58.9932C44.5249 58.6894 44.7966 58.3778 45.0682 58.0663C45.2079 57.9067 45.3477 57.7395 45.4797 57.5723C45.6815 57.3443 45.8756 57.1164 46.0543 56.8806C46.2406 56.6603 46.4193 56.4322 46.5902 56.204C46.7533 56.0064 46.9087 55.8011 47.0564 55.6034C47.2583 55.3449 47.4526 55.0864 47.6392 54.8201C47.8258 54.5539 48.0279 54.2877 48.2145 54.0139C48.307 53.8945 48.3927 53.77 48.4712 53.6411C48.7356 53.2607 48.9923 52.8727 49.2413 52.4846C49.5603 52.0053 49.8639 51.5182 50.1522 51.0234C50.2845 50.8103 50.4092 50.5971 50.5338 50.3839C51.5442 48.6428 52.4461 46.8418 53.2344 44.9913C53.3517 44.7322 53.4612 44.4731 53.5631 44.2063C53.6882 43.9244 53.7979 43.6347 53.9077 43.3451C54.0017 43.1088 54.0957 42.8649 54.182 42.6209C54.2839 42.3541 54.3782 42.0796 54.4724 41.8128C54.8177 40.8369 55.1323 39.8532 55.4084 38.8539C55.4794 38.6022 55.5503 38.3581 55.6136 38.1063C55.6609 37.9462 55.7004 37.7936 55.74 37.6334L55.9299 36.8552C56.1834 35.7946 56.3984 34.7262 56.5827 33.6422L56.703 32.9094C56.7192 32.7949 56.7353 32.688 56.7515 32.5735C56.7996 32.2834 56.84 31.9933 56.8727 31.7031C56.9295 31.2679 56.9863 30.8327 57.0276 30.3974C57.0438 30.2829 57.0523 30.1683 57.0607 30.0537C57.0935 29.7559 57.1186 29.4504 57.1437 29.1525C57.1687 28.8547 57.1862 28.5415 57.2036 28.2359C57.2204 28.0221 57.2295 27.8081 57.2387 27.5866C57.2741 26.8838 57.2941 26.1809 57.2987 25.4778C57.3011 25.1187 57.3034 24.7672 57.2903 24.4156C57.2915 24.2322 57.2927 24.0564 57.2862 23.873C57.2672 23.2386 57.2405 22.6118 57.1984 21.9849L57.1986 21.962C57.1919 21.8091 57.1852 21.6562 57.1708 21.5033C57.1427 21.0828 57.1069 20.6699 57.0712 20.2494C57.0715 20.2362 57.069 20.2231 57.0637 20.2111C58.0953 21.1556 59.0591 22.1706 59.9478 23.2485L59.9707 23.2716C59.9749 23.2758 59.9776 23.2811 59.9783 23.287C64.3652 28.6177 66.7356 35.3022 66.679 42.1833Z" fill="#FF8FA2"/>
<path d="M57.2692 25.3412C57.2133 34.4821 54.6701 43.4378 49.9087 51.2604C45.1474 59.083 38.3449 65.4815 30.2214 69.7788C30.2113 69.7903 30.1977 69.7983 30.1827 69.8014L30.175 69.809C29.7735 70.0204 29.372 70.2241 28.9705 70.4278C26.4636 69.754 24.0583 68.7513 21.8182 67.4462C20.1976 66.505 18.6693 65.4152 17.2532 64.1912C17.5244 63.9102 17.7879 63.6292 18.0514 63.3405L18.0591 63.3329C18.0591 63.3253 18.067 63.3177 18.0747 63.3101L18.0823 63.3102C26.5636 54.0716 31.2928 42.037 31.3552 29.5347C31.3918 24.1492 30.5699 18.7917 28.9199 13.6611L28.9123 13.6611C28.9124 13.6458 28.9048 13.6305 28.9049 13.6152L28.8972 13.6151C28.8929 13.6028 28.8903 13.5899 28.8898 13.5769C28.739 13.1097 28.5804 12.6425 28.4142 12.1829L37.017 12.2394C44.4401 12.2779 51.5805 15.0726 57.0344 20.0741C57.0922 20.6553 57.1345 21.2364 57.1692 21.8251C57.2462 22.9872 57.277 24.1567 57.2692 25.3412Z" fill="#9087E5"/>
<path d="M31.4813 29.5356C31.4779 30.0476 31.4669 30.5596 31.4484 31.0638C31.4386 31.3924 31.4212 31.7132 31.4038 32.0417C31.3341 33.3557 31.211 34.6617 31.0345 35.9597C30.9941 36.2957 30.9461 36.624 30.8905 36.9523C30.8344 37.3569 30.7631 37.7538 30.6917 38.1584C30.6281 38.5401 30.557 38.9141 30.4781 39.2957C30.4622 39.3873 30.4387 39.4788 30.4229 39.5704C30.3597 39.8833 30.2889 40.2038 30.2181 40.5167C29.8489 42.143 29.3975 43.7494 28.8657 45.33C28.7644 45.6427 28.6555 45.9476 28.5467 46.245C28.5371 46.2817 28.5241 46.3174 28.5078 46.3517C28.3988 46.6643 28.29 46.9616 28.1735 47.2666C28.1423 47.3581 28.1035 47.4572 28.0647 47.5563C27.9404 47.8841 27.8085 48.2042 27.6766 48.5243C27.5291 48.8901 27.374 49.2559 27.2113 49.614C27.0485 49.9874 26.8781 50.3608 26.7077 50.7341C26.5451 51.0769 26.3749 51.4197 26.2124 51.7549C26.0344 52.1129 25.8565 52.4633 25.671 52.806C25.4855 53.1486 25.3 53.499 25.1069 53.8416C24.9137 54.1842 24.7206 54.5268 24.5276 54.8618C24.3345 55.1968 24.1261 55.5393 23.9177 55.8742C23.7094 56.2091 23.5011 56.5364 23.2852 56.8636C22.861 57.518 22.4215 58.1647 21.9669 58.796C21.5123 59.4273 21.0349 60.0508 20.5575 60.6667C19.8338 61.5714 19.0849 62.4529 18.3107 63.3114L18.3031 63.3114C18.2954 63.319 18.2954 63.319 18.2953 63.3266C18.2953 63.3286 18.2945 63.3306 18.2931 63.332C18.2916 63.3334 18.2897 63.3342 18.2876 63.3342C18.0262 63.6229 17.757 63.9115 17.488 64.1925C16.2919 63.1499 15.181 62.013 14.1662 60.7929C14.1586 60.7783 14.1483 60.7653 14.1359 60.7545C9.68112 55.3951 7.26679 48.6295 7.3212 41.6579L7.51565 12.0459L28.5642 12.1841C28.7291 12.6437 28.8864 13.1033 29.0284 13.5704L29.036 13.5781C29.0366 13.5911 29.0391 13.604 29.0434 13.6163L29.051 13.6164L29.0509 13.6393C29.0504 13.6435 29.0508 13.6477 29.052 13.6516C29.0534 13.6556 29.0556 13.6592 29.0584 13.6623L29.066 13.6623C29.0726 13.6915 29.0827 13.7198 29.096 13.7466L29.1857 14.0452C29.4399 14.857 29.6712 15.6762 29.8795 16.5105C30.0285 17.0694 30.1622 17.6434 30.2882 18.2174C30.5181 19.2582 30.7172 20.3218 30.8857 21.4005C30.9222 21.6606 30.9664 21.913 30.9952 22.1731C31.0826 22.8079 31.1625 23.4428 31.227 24.0851C31.2559 24.3222 31.2772 24.5669 31.291 24.8039C31.3339 25.2474 31.3614 25.6985 31.3891 26.1419C31.458 27.2658 31.4888 28.397 31.4813 29.5356Z" fill="#C4D0FB"/>
</g>
<rect x="9" width="56" height="50" rx="14" fill="white"/>
<mask id="mask1_210_226" style="mask-type:alpha" maskUnits="userSpaceOnUse" x="22" y="8" width="30" height="34">
<path fill-rule="evenodd" clip-rule="evenodd" d="M36.1045 34.09C37.1436 34.0425 38.1654 33.879 39.1515 33.6075L40.5426 34.9678C41.8519 36.2481 43.9794 36.2529 45.2945 34.9786C46.6096 33.7043 46.6143 31.6334 45.305 30.3532L43.7254 28.8087C43.437 28.5266 43.1089 28.3065 42.7585 28.1483C41.7307 27.3936 40.2677 27.4828 39.0877 28.0551C38.0878 28.5402 36.9864 28.823 35.8507 28.8749C33.8411 28.9667 31.8685 28.329 30.3183 27.0864C28.7682 25.8438 27.7521 24.0857 27.4686 22.1557C27.1852 20.2257 27.6547 18.2627 28.7855 16.6504C29.9163 15.0381 31.6271 13.8924 33.5833 13.4373C35.5395 12.9822 37.6005 13.2505 39.3635 14.1896C41.1264 15.1287 42.4645 16.6712 43.1162 18.5155C43.4594 19.487 43.5992 20.5055 43.5379 21.5133C43.4465 23.0149 44.0291 24.6412 45.4164 25.223C46.7594 25.7861 48.3383 25.1746 48.6487 23.7518C49.1481 21.4625 49.0065 19.0683 48.2137 16.8244C47.1276 13.7506 44.8974 11.1797 41.9592 9.6145C39.0209 8.04927 35.5858 7.60219 32.3255 8.36066C29.0651 9.11913 26.2139 11.0286 24.3293 13.7158C22.4446 16.403 21.662 19.6747 22.1344 22.8913C22.6069 26.1079 24.3004 29.0382 26.8839 31.1092C29.4674 33.1802 32.7552 34.243 36.1045 34.09ZM46.2698 36.4119C44.9549 37.686 44.9498 39.7569 46.2589 41.0369C47.568 42.317 49.6956 42.3215 51.0105 41.0474C52.3254 39.7733 52.3304 37.7024 51.0213 36.4223C49.7122 35.1422 47.5847 35.1377 46.2698 36.4119Z" fill="#6A5AE0"/>
</mask>
<g mask="url(#mask1_210_226)">
<path fill-rule="evenodd" clip-rule="evenodd" d="M40.231 52.5953L67.4608 26.0574L61.5732 20.5085L30.4185 51.1477L40.231 52.5953Z" fill="#6A5AE0"/>
<path fill-rule="evenodd" clip-rule="evenodd" d="M34.8829 45.5252L61.2875 20.3368L55.5784 15.0701L25.3677 44.1513L34.8829 45.5252Z" fill="#6A5AE0"/>
<path fill-rule="evenodd" clip-rule="evenodd" d="M26.9409 44.4523L57.9689 14.1677L52.5305 8.5064L21.5025 38.791L26.9409 44.4523Z" fill="#6A5AE0"/>
<path fill-rule="evenodd" clip-rule="evenodd" d="M21.3381 39.5432L52.3073 9.17286L44.2602 5.82495L16.9487 32.6082L21.3381 39.5432Z" fill="#6A5AE0"/>
<path fill-rule="evenodd" clip-rule="evenodd" d="M16.9487 33.0171L45.0111 5.82495L29.9777 7.28167L16.9487 21.1205V33.0171Z" fill="#6A5AE0"/>
</g>
</svg>
