<svg width="15" height="7" viewBox="0 0 15 7" fill="none" xmlns="http://www.w3.org/2000/svg">
<path d="M6.99979 7.00003C6.76614 7.00049 6.5397 6.91911 6.35979 6.77003L0.359788 1.77003C0.155571 1.60029 0.0271464 1.35638 0.00276666 1.09196C-0.0216131 0.827529 0.0600488 0.564248 0.229787 0.360031C0.399526 0.155814 0.643437 0.0273905 0.907864 0.00301082C1.17229 -0.0213689 1.43557 0.0602925 1.63979 0.230031L6.99979 4.71003L12.3598 0.390032C12.4621 0.306966 12.5798 0.244934 12.7061 0.207502C12.8324 0.170071 12.9649 0.157977 13.096 0.171916C13.227 0.185855 13.354 0.225552 13.4696 0.288726C13.5853 0.3519 13.6873 0.437305 13.7698 0.540031C13.8614 0.642853 13.9307 0.763479 13.9735 0.894353C14.0163 1.02523 14.0316 1.16353 14.0185 1.30059C14.0053 1.43765 13.964 1.57053 13.8971 1.69088C13.8303 1.81124 13.7392 1.91649 13.6298 2.00003L7.62979 6.83003C7.4447 6.95555 7.22289 7.0154 6.99979 7.00003Z" fill="white"/>
</svg>
