<svg width="20" height="19" viewBox="0 0 20 19" fill="none" xmlns="http://www.w3.org/2000/svg">
<path d="M15.5598 19C15.3998 19.0006 15.2421 18.9629 15.0998 18.89L9.99976 16.22L4.89976 18.89C4.73416 18.977 4.54744 19.0159 4.36084 19.0022C4.17424 18.9884 3.99524 18.9226 3.84419 18.8122C3.69314 18.7017 3.5761 18.5511 3.50638 18.3775C3.43665 18.2039 3.41704 18.0142 3.44976 17.83L4.44976 12.2L0.329763 8.19996C0.20122 8.07168 0.110034 7.91083 0.0659903 7.73465C0.0219465 7.55848 0.0267076 7.37363 0.0797626 7.19996C0.137723 7.02223 0.244339 6.86431 0.387513 6.74412C0.530687 6.62392 0.704685 6.54627 0.889763 6.51996L6.58976 5.68996L9.09976 0.55996C9.18165 0.390889 9.3095 0.248302 9.46867 0.148533C9.62785 0.0487648 9.81191 -0.00415039 9.99976 -0.00415039C10.1876 -0.00415039 10.3717 0.0487648 10.5309 0.148533C10.69 0.248302 10.8179 0.390889 10.8998 0.55996L13.4398 5.67996L19.1398 6.50996C19.3248 6.53627 19.4988 6.61392 19.642 6.73412C19.7852 6.85431 19.8918 7.01223 19.9498 7.18996C20.0028 7.36363 20.0076 7.54848 19.9635 7.72465C19.9195 7.90083 19.8283 8.06168 19.6998 8.18996L15.5798 12.19L16.5798 17.82C16.6155 18.0074 16.5968 18.2012 16.5259 18.3784C16.455 18.5556 16.3349 18.7088 16.1798 18.82C15.9987 18.9469 15.7806 19.0102 15.5598 19Z" fill="white"/>
</svg>
